<svg xmlns="http://www.w3.org/2000/svg" xmlns:xlink="http://www.w3.org/1999/xlink" width="33.591" height="33.591" viewBox="0 0 33.591 33.591">
  <defs>
    <clipPath id="clip-path">
      <path id="Path_438" data-name="Path 438" d="M16.8,12.591a16.8,16.8,0,0,0,16.8-16.8A16.8,16.8,0,0,0,16.8-21,16.8,16.8,0,0,0,0-4.2,16.8,16.8,0,0,0,16.8,12.591Z" fill="none" clip-rule="evenodd"/>
    </clipPath>
    <clipPath id="clip-path-2">
      <path id="Path_437" data-name="Path 437" d="M-14,946.219H648.224V-487H-14Z" transform="translate(14 487)" fill="none"/>
    </clipPath>
    <linearGradient id="linear-gradient" x2="0" y2="48.762" gradientUnits="objectBoundingBox">
      <stop offset="0"/>
      <stop offset="0" stop-color="#6d65aa"/>
      <stop offset="0.1" stop-color="#9b62a8"/>
      <stop offset="0.2" stop-color="#bf84b4"/>
      <stop offset="0.3" stop-color="#bb6ca5"/>
      <stop offset="0.4" stop-color="#ab418e"/>
      <stop offset="0.5" stop-color="#b94e7a"/>
      <stop offset="0.6" stop-color="#ca5d67"/>
      <stop offset="0.7" stop-color="#da6d53"/>
      <stop offset="0.8" stop-color="#e57f4f"/>
      <stop offset="0.9" stop-color="#ea9359"/>
      <stop offset="1" stop-color="#efa862"/>
      <stop offset="1"/>
    </linearGradient>
    <linearGradient id="linear-gradient-2" x1="0.821" y1="0.199" x2="0.137" y2="0.837" gradientUnits="objectBoundingBox">
      <stop offset="0" stop-color="#6d65aa"/>
      <stop offset="0.1" stop-color="#9b62a8"/>
      <stop offset="0.2" stop-color="#bf84b4"/>
      <stop offset="0.3" stop-color="#bb6ca5"/>
      <stop offset="0.4" stop-color="#ab418e"/>
      <stop offset="0.5" stop-color="#b94e7a"/>
      <stop offset="0.6" stop-color="#ca5d67"/>
      <stop offset="0.7" stop-color="#da6d53"/>
      <stop offset="0.8" stop-color="#e57f4f"/>
      <stop offset="0.9" stop-color="#ea9359"/>
      <stop offset="1" stop-color="#efa862"/>
    </linearGradient>
    <clipPath id="clip-path-3">
      <path id="Path_444" data-name="Path 444" d="M14.267-13.465a1.267,1.267,0,0,0,1.267-1.267A1.267,1.267,0,0,0,14.267-16,1.267,1.267,0,0,0,13-14.733,1.267,1.267,0,0,0,14.267-13.465Z" transform="translate(0)" fill="none" clip-rule="evenodd"/>
    </clipPath>
    <clipPath id="clip-path-4">
      <path id="Path_443" data-name="Path 443" d="M-14,648.531H510.676V-487H-14Z" transform="translate(14 487)" fill="none"/>
    </clipPath>
  </defs>
  <g id="Instagram_icon" data-name="Instagram icon" transform="translate(-200.409 -917)">
    <g id="Instagram_icon-2" data-name="Instagram icon">
      <g id="Group_51" data-name="Group 51" transform="translate(200.409 938)" clip-path="url(#clip-path)">
        <g id="Group_50" data-name="Group 50" transform="translate(-22.394 -766.402)" clip-path="url(#clip-path-2)">
          <g id="Group_48" data-name="Group 48" transform="translate(22.394 745.402)" opacity="0">
            <g id="Group_47" data-name="Group 47" transform="translate(0 0)">
              <path id="Path_435" data-name="Path 435" d="M0,0H33.591V33.591H0Z" fill="url(#linear-gradient)"/>
            </g>
          </g>
          <g id="Group_49" data-name="Group 49" transform="translate(22.394 745.402)">
            <path id="Path_436" data-name="Path 436" d="M0,0H33.591V33.591H0Z" fill="url(#linear-gradient-2)"/>
          </g>
        </g>
      </g>
      <g id="Group_69" data-name="Group 69" transform="translate(207 944)">
        <g id="Group_52" data-name="Group 52" transform="translate(1.109 -20)">
          <path id="Path_439" data-name="Path 439" d="M3.282,0H16.411a3.282,3.282,0,0,1,3.282,3.282V16.411a3.282,3.282,0,0,1-3.282,3.282H3.282A3.282,3.282,0,0,1,0,16.411V3.282A3.282,3.282,0,0,1,3.282,0Z" transform="translate(-1.109 -1)" fill="none" stroke="#fffefe" stroke-width="1.5"/>
        </g>
        <g id="Group_53" data-name="Group 53" transform="translate(5 -16.407)">
          <path id="Path_440" data-name="Path 440" d="M5.174,10.348A5.174,5.174,0,1,0,0,5.174,5.174,5.174,0,0,0,5.174,10.348Z" fill="none" stroke="#fff" stroke-width="1.5"/>
        </g>
      </g>
      <g id="Group_56" data-name="Group 56" transform="translate(209.465 941)" clip-path="url(#clip-path-3)">
        <g id="Group_55" data-name="Group 55" transform="translate(-21.218 -612.914)" clip-path="url(#clip-path-4)">
          <path id="Path_442" data-name="Path 442" d="M8-21H23.208V-5.792H8Z" transform="translate(19.881 611.578)" fill="#fff"/>
        </g>
      </g>
    </g>
  </g>
</svg>
