<svg xmlns="http://www.w3.org/2000/svg" width="33.795" height="33.441" viewBox="0 0 33.795 33.441">
  <g id="linkedin" transform="translate(0 0.001)">
    <ellipse id="Ellipse_7" data-name="Ellipse 7" cx="16.898" cy="16.72" rx="16.898" ry="16.72" transform="translate(0 -0.001)" fill="#007ab9"/>
    <g id="Group_68" data-name="Group 68" transform="translate(8.153 7.143)">
      <path id="Path_457" data-name="Path 457" d="M45.908,34.89v6.893H41.869V35.352c0-1.615-.583-2.718-2.046-2.718A2.207,2.207,0,0,0,37.752,34.1a2.709,2.709,0,0,0-.134.974v6.713H33.579s.054-10.893,0-12.02h4.04v1.7c-.008.013-.02.027-.027.039h.027v-.039a4.017,4.017,0,0,1,3.64-1.986c2.657,0,4.65,1.718,4.65,5.409ZM29.354,23.969a2.085,2.085,0,1,0-.053,4.154h.026a2.085,2.085,0,1,0,.027-4.154ZM27.308,41.784h4.038V29.763H27.308Z" transform="translate(-27.068 -23.969)" fill="#f1f2f2"/>
    </g>
  </g>
</svg>
