<svg xmlns="http://www.w3.org/2000/svg" width="61.589" height="61.754" viewBox="0 0 61.589 61.754">
  <g id="Logo" transform="translate(-224.837 -421.126)">
    <g id="Group_39" data-name="Group 39" transform="translate(226.114 435.312)">
      <g id="Group_37" data-name="Group 37" transform="translate(10.217)">
        <g id="Group_35" data-name="Group 35" transform="translate(2.206 18.057)">
          <path id="Path_355" data-name="Path 355" d="M251.216,445.281h-1.39v10.525l-10.334-10.524H235.1v15.563h1.388V450.311l10.357,10.544h4.362v-.009h.008Zm-12.254,1.264,10.864,11.063v1.319l-12.1-12.382Zm-2.473,1.964v-1.244L248.6,459.593h-1.221Z" transform="translate(-235.1 -445.281)" fill="#221535"/>
          <path id="Path_356" data-name="Path 356" d="M264.9,459.491l-4.257-14.21h-8.14l-.059,1.366h2.034l-4.026,12.844h-1.942v1.364h5.2v-1.364H252.1l1.133-3.281h5.419l.885,3.281h-1.95v1.364h9v-1.364Zm-11.2-4.647,2.571-7.445,2.009,7.445Z" transform="translate(-230.608 -445.281)" fill="#221535"/>
        </g>
        <g id="Group_36" data-name="Group 36">
          <path id="Path_357" data-name="Path 357" d="M244.254,431.766H249.7l1.3,7.407c.243,1.3.308,1.675.44,2.822.155-.992.2-1.213.419-2.315l1.874-7.914h5.688l.948,4.409c.662,2.843.772,3.395,1.169,5.753.109-.881.154-1.147.264-1.94l1.432-8.223h5.423l-3.748,15.563h-5.974l-1.786-7.009a21.1,21.1,0,0,1-.662-3.395,19.792,19.792,0,0,1-.638,3.46l-1.809,6.944h-6.019Z" transform="translate(-229.829 -431.75)" fill="#221535"/>
          <path id="Path_358" data-name="Path 358" d="M245.892,431.754h-4.366v1.325h1.206l-1.031,7.98-1.19-7.664-1.677-.01-1.349,7.857-.993-8.162h1.321v-1.325h-4.366v1.325h1.264l1.726,14.255h1.787l1.4-8.119,1.253,8.119h1.785l1.851-14.255h1.378Z" transform="translate(-233.447 -431.754)" fill="#221535"/>
        </g>
      </g>
      <g id="Group_38" data-name="Group 38" transform="translate(0 16.407)">
        <circle id="Ellipse_5" data-name="Ellipse 5" cx="0.444" cy="0.444" r="0.444" fill="#221535"/>
        <circle id="Ellipse_6" data-name="Ellipse 6" cx="0.444" cy="0.444" r="0.444" transform="translate(58.148)" fill="#221535"/>
      </g>
    </g>
    <g id="Group_42" data-name="Group 42" transform="translate(224.837 421.126)">
      <g id="Group_40" data-name="Group 40">
        <path id="Path_359" data-name="Path 359" d="M225.023,441.033l2.727.3-.037.335-1.079.39.968.615-.037.335-2.727-.3.037-.335,2.045.227-.662-.422.035-.316.74-.266-2.046-.228Z" transform="translate(-224.837 -414.46)" fill="#221535"/>
        <path id="Path_360" data-name="Path 360" d="M225.359,439.335l2.694.506-.063.33-1.2-.226-.187.992,1.205.227-.063.33-2.694-.5.063-.331,1.157.218.187-.992-1.159-.218Z" transform="translate(-224.766 -415.029)" fill="#221535"/>
        <path id="Path_361" data-name="Path 361" d="M227.372,438.757l.925.247-.087.324-.921-.246-1.9.19.092-.346,1.346-.142-1.1-.793.092-.346Z" transform="translate(-224.652 -415.594)" fill="#221535"/>
        <path id="Path_362" data-name="Path 362" d="M227.407,434.543l-.27.617,2.22.97-.135.308-2.22-.97-.27.617-.291-.127.674-1.542Z" transform="translate(-224.3 -416.676)" fill="#221535"/>
        <path id="Path_363" data-name="Path 363" d="M227.939,432.876l2.424,1.285-.158.3-1.085-.575-.474.893,1.085.577-.159.3-2.424-1.287.159-.3,1.041.553.474-.893-1.041-.553Z" transform="translate(-224.063 -417.191)" fill="#221535"/>
        <path id="Path_364" data-name="Path 364" d="M229.424,433.335l.786.5.718-1.141.27.17-.9,1.427-2.324-1.462.9-1.427.268.169-.717,1.141.728.458.59-.937.27.17Z" transform="translate(-223.786 -417.687)" fill="#221535"/>
        <path id="Path_365" data-name="Path 365" d="M231.062,428.677l2.074,1.79-.22.255-1.108-.29.449,1.055-.22.254-2.074-1.79.22-.255,1.556,1.343-.307-.722.207-.24.76.2-1.555-1.344Z" transform="translate(-223.121 -418.598)" fill="#221535"/>
        <path id="Path_366" data-name="Path 366" d="M233.729,429.76l-.323.323-.449.107-.449-.135-1.048-1.048-.133-.449.105-.448.323-.323.447-.105.449.135,1.048,1.048.135.449Zm-.494.017.188-.187.063-.268-.084-.28-.928-.928-.28-.084-.268.063-.187.188-.063.267.084.28.928.928.28.084Z" transform="translate(-222.663 -418.931)" fill="#221535"/>
        <path id="Path_367" data-name="Path 367" d="M234.369,427.473l-.1.263,1.088.61-.272.234-1.005-.565-.4.347.706.822-.255.22-1.807-2.1.782-.673.458-.1.439.139.3.347Zm-.563-.51-.262-.083-.287.063-.461.4.659.766.461-.4.105-.274-.043-.272Z" transform="translate(-222.331 -419.316)" fill="#221535"/>
        <path id="Path_368" data-name="Path 368" d="M236.638,427.269l-1.339.988-1.63-2.208.272-.2,1.44,1.953,1.068-.789Z" transform="translate(-221.88 -419.545)" fill="#221535"/>
        <path id="Path_369" data-name="Path 369" d="M236.822,424.781l.79,1.255.032.467-.2.414-.906.57-1.487-2.363.906-.571.461,0Zm-.239.251-.255-.144h-.275l-.541.34,1.128,1.793.541-.339.12-.247-.019-.292Z" transform="translate(-221.418 -419.979)" fill="#221535"/>
        <path id="Path_370" data-name="Path 370" d="M239.616,422.788l1.1,2.512-.308.135-1.749-1.479.824,1.884-.31.135-1.1-2.512.308-.135,1.749,1.479-.824-1.883Z" transform="translate(-220.405 -420.569)" fill="#221535"/>
        <path id="Path_371" data-name="Path 371" d="M240.481,424.055l.306.878,1.273-.445.1.3-1.591.554-.9-2.592,1.591-.555.105.3-1.273.443.283.812,1.045-.363.105.3Z" transform="translate(-219.87 -420.767)" fill="#221535"/>
        <path id="Path_372" data-name="Path 372" d="M242.017,423.528l.239.9,1.3-.347.083.307-1.63.434-.706-2.652,1.629-.434.083.307-1.3.347.222.832,1.071-.286.083.308Z" transform="translate(-219.322 -420.922)" fill="#221535"/>
        <path id="Path_373" data-name="Path 373" d="M244.757,422l.274,1.456-.143.446-.339.31-1.052.2-.514-2.742,1.052-.2.428.166Zm-.315.145-.184-.227-.255-.1-.627.117.39,2.078.627-.117.2-.184.088-.279Z" transform="translate(-218.761 -421.012)" fill="#221535"/>
        <path id="Path_374" data-name="Path 374" d="M246.116,422.077l-.025-.226-.152-.19-.248-.1-.276.031-.222.149-.107.219.025.23.152.19.248.1.359-.04.41.16.27.336.047.424-.188.387-.364.247-.442.049-.41-.16-.27-.336-.036-.323.335-.037.025.226.152.19.248.1.276-.031.22-.15.107-.219-.025-.23-.152-.19-.248-.1-.359.04-.41-.16-.27-.336-.047-.424.19-.387.364-.247.442-.049.408.161.271.336.035.322Z" transform="translate(-218.172 -421.095)" fill="#221535"/>
        <path id="Path_375" data-name="Path 375" d="M249.261,423.187l-.659-.024-.19.692-.348-.013.762-2.715.362.013.561,2.764-.348-.013Zm-.067-.339-.211-1.065-.29,1.047Z" transform="translate(-217.059 -421.126)" fill="#221535"/>
        <path id="Path_376" data-name="Path 376" d="M251.61,421.372l-.3,2.727-.335-.037-.777-2.157-.228,2.045-.335-.036.3-2.727.335.036.778,2.157.227-2.045Z" transform="translate(-216.534 -421.106)" fill="#221535"/>
        <path id="Path_377" data-name="Path 377" d="M253.192,422.02l-.662-.124-.446,2.381-.331-.061.447-2.381-.662-.124.059-.312,1.654.31Z" transform="translate(-215.896 -421.035)" fill="#221535"/>
        <path id="Path_378" data-name="Path 378" d="M255.09,422.166l-.707,2.652-.326-.087.318-1.187-.978-.26-.316,1.187-.326-.087.707-2.652.326.087-.3,1.14.977.26.3-1.14Z" transform="translate(-215.489 -420.923)" fill="#221535"/>
        <path id="Path_379" data-name="Path 379" d="M256.064,424.034l-.279.044.019,1.248-.339-.117-.016-1.153-.5-.175-.358,1.022-.318-.111.91-2.615.973.339.316.346.1.45-.149.431Zm.158-.742-.06-.268-.2-.216-.574-.2-.332.954.574.2.29-.047.214-.174Z" transform="translate(-214.981 -420.774)" fill="#221535"/>
        <path id="Path_380" data-name="Path 380" d="M256.662,425.693l-.418-.183-.262-.379-.039-.466.593-1.358.368-.288.457-.065.418.183.262.379.039.466-.593,1.358-.368.288Zm-.195-.454.243.107.271-.039.231-.182.525-1.2-.023-.292-.157-.226-.242-.105-.272.039-.231.18-.525,1.2.024.291Z" transform="translate(-214.421 -420.514)" fill="#221535"/>
        <path id="Path_381" data-name="Path 381" d="M259.7,424.813l-.215.4-.4.232-.469,0-.613-.326-.507.957-.3-.158,1.3-2.445.91.483.26.388Zm-.343-.073-.019-.275-.163-.243-.537-.286-.474.893.537.286.294,0,.238-.139Z" transform="translate(-213.999 -420.337)" fill="#221535"/>
        <path id="Path_382" data-name="Path 382" d="M259.407,427.158l-.387-.243-.2-.414.032-.467.789-1.256.408-.231.461,0,.387.243.2.414-.031.467-.789,1.256-.409.23Zm-.127-.478.226.142h.275l.255-.144.7-1.111.02-.292-.12-.247-.226-.141-.275,0-.255.144-.7,1.112-.02.292Z" transform="translate(-213.459 -419.98)" fill="#221535"/>
        <path id="Path_383" data-name="Path 383" d="M261.261,428.455l-1.34-.988,1.63-2.208.272.2-1.442,1.953,1.068.789Z" transform="translate(-213.089 -419.742)" fill="#221535"/>
        <path id="Path_384" data-name="Path 384" d="M261.9,429.019l-.347-.3-.139-.439.1-.458.969-1.124.436-.168.456.072.346.3.139.44-.1.457-.968,1.125-.438.167Zm-.053-.491.2.172.272.044.274-.105.857-1,.063-.287-.083-.262-.2-.174-.271-.043-.275.105-.856.995-.064.287Z" transform="translate(-212.59 -419.316)" fill="#221535"/>
        <path id="Path_385" data-name="Path 385" d="M264.563,428.929l.109-.109.084-.28-.063-.267-.188-.188-.267-.063-.28.084-.928.928-.085.28.064.268.187.187.267.063.282-.084.259-.259-.356-.358.238-.238.6.6-.558.558-.449.134-.449-.105-.322-.323-.107-.447.135-.448,1.048-1.048.449-.135.448.105.323.323.105.449-.135.448-.168.168Z" transform="translate(-212.193 -418.934)" fill="#221535"/>
        <path id="Path_386" data-name="Path 386" d="M264.37,431.019l.44.509-.242.208-1.1-1.273.24-.208.439.51,1.594-1.376-.44-.51.24-.207,1.1,1.273-.24.207-.441-.509Z" transform="translate(-211.901 -418.6)" fill="#221535"/>
        <path id="Path_387" data-name="Path 387" d="M266.728,431.523l.182-.135.088-.227-.041-.263-.164-.223-.24-.116-.242.017-.186.137-.088.227.041.263.214.29.067.434-.155.4-.342.254-.43.031-.4-.191-.264-.356-.067-.434.155-.4.26-.192.2.27-.182.135-.088.227.041.263.164.223.24.116.243-.017.184-.137.088-.227-.04-.263-.215-.29-.067-.434.155-.4.343-.254.428-.031.4.191.264.356.068.434-.156.4-.26.192Z" transform="translate(-211.487 -418.082)" fill="#221535"/>
        <path id="Path_388" data-name="Path 388" d="M268.281,432.99l-.36-.57-2.053,1.292-.179-.286,2.053-1.292-.359-.57.27-.17.9,1.426Z" transform="translate(-211.158 -417.687)" fill="#221535"/>
        <path id="Path_389" data-name="Path 389" d="M268.476,434.406l.2-.105.121-.212v-.267l-.131-.244-.22-.151-.243-.019-.2.108-.12.211v.267l.17.319v.44l-.214.374-.376.2-.431-.033-.363-.247-.208-.392v-.44l.214-.375.287-.152.158.3-.2.107-.12.211v.267l.131.246.22.151.243.019.2-.108.12-.212V434.4l-.169-.32v-.439l.212-.375.378-.2.43.033.363.248.208.392v.44l-.214.374-.286.152Z" transform="translate(-210.901 -417.129)" fill="#221535"/>
        <path id="Path_390" data-name="Path 390" d="M268.047,437.183l.41,1.168-.3.1-.558-1.587.3-.1,1.914.754.218-.077.151-.191.039-.263-.092-.263-.195-.18-.236-.056-.219.077-.111-.318.31-.109.419.1.322.3.148.419-.064.434-.267.339-.428.151Z" transform="translate(-210.516 -416.099)" fill="#221535"/>
        <path id="Path_391" data-name="Path 391" d="M270.545,439.388l-1.43.382-.455-.108-.335-.315-.117-.44.132-.441.34-.32,1.431-.382.454.108.335.315.117.44-.132.44Zm-1.719-.032.06.015,1.009-1.2-1.045.279-.214.2-.079.263.068.256Zm1.575-1.179-.061-.015-1.01,1.2,1.048-.28.212-.2.079-.263-.068-.256Z" transform="translate(-210.314 -415.555)" fill="#221535"/>
        <path id="Path_392" data-name="Path 392" d="M269.011,440.768l.124.661-.314.059-.31-1.654.312-.057.124.661,2.069-.388-.124-.661.312-.059.186.993Z" transform="translate(-210.212 -415.031)" fill="#221535"/>
        <path id="Path_393" data-name="Path 393" d="M271.131,442.676l-1.613.18-.387-.155-.255-.32-.052-.477.178-.368.343-.235.3-.035.037.335-.222.025-.2.136-.1.2.031.283.139.175.224.089.565-.063-.151-.191-.053-.475.178-.37.344-.235.511-.056.387.154.255.322.052.475-.178.368Zm-.12-.326.2-.136.1-.2-.032-.284-.139-.174-.224-.091-.346.039-.2.137-.1.2.032.283.139.175.224.089Z" transform="translate(-210.108 -414.43)" fill="#221535"/>
      </g>
      <g id="Group_41" data-name="Group 41" transform="translate(0.045 33.203)">
        <path id="Path_394" data-name="Path 394" d="M271.521,447.977l-2.727-.3.037-.335,1.079-.388-.966-.615.036-.335,2.727.3-.037.335-2.045-.228.662.422-.035.318-.738.266,2.045.227Z" transform="translate(-210.163 -446)" fill="#221535"/>
        <path id="Path_395" data-name="Path 395" d="M271.207,449.72l-2.692-.5.061-.331,1.205.226.186-.992-1.2-.226.061-.331,2.694.5-.063.331-1.157-.218-.186.993,1.157.218Z" transform="translate(-210.257 -445.477)" fill="#221535"/>
        <path id="Path_396" data-name="Path 396" d="M269.169,450.18l-.924-.247.088-.324.92.246,1.9-.191-.092.346-1.346.142,1.1.794-.092.346Z" transform="translate(-210.347 -444.792)" fill="#221535"/>
        <path id="Path_397" data-name="Path 397" d="M269.137,454.478l.27-.617-2.22-.97.135-.308,2.22.97.27-.617.291.127-.674,1.543Z" transform="translate(-210.701 -443.796)" fill="#221535"/>
        <path id="Path_398" data-name="Path 398" d="M268.68,456.335l-2.424-1.287.158-.3,1.085.575.473-.893-1.084-.575.159-.3,2.423,1.285-.157.3-1.041-.553-.474.893,1.041.553Z" transform="translate(-211.013 -443.469)" fill="#221535"/>
        <path id="Path_399" data-name="Path 399" d="M267.2,455.9l-.786-.5-.718,1.141-.27-.17.9-1.426,2.323,1.46-.9,1.427-.27-.17.718-1.141-.729-.458-.589.937-.27-.169Z" transform="translate(-211.292 -443.002)" fill="#221535"/>
        <path id="Path_400" data-name="Path 400" d="M265.547,460.607l-2.074-1.791.22-.255,1.107.29-.447-1.053.22-.255,2.074,1.791-.22.255-1.555-1.344.306.722-.207.24-.76-.2,1.555,1.343Z" transform="translate(-211.945 -442.135)" fill="#221535"/>
        <path id="Path_401" data-name="Path 401" d="M262.712,459.383l.323-.323.449-.105.449.135,1.048,1.048.135.449-.105.448-.323.323-.448.105-.449-.135-1.048-1.048-.135-.449Zm.494-.017-.187.188-.064.267.084.28.929.929.28.084.267-.064.187-.187.064-.267-.084-.282-.928-.928-.282-.084Z" transform="translate(-212.235 -441.662)" fill="#221535"/>
        <path id="Path_402" data-name="Path 402" d="M262.206,461.763l.1-.263-1.089-.61.272-.234,1.007.563.4-.347-.707-.821.255-.22,1.807,2.1-.781.673-.458.1-.439-.139-.3-.347Zm.562.509.263.083.286-.063.462-.4-.659-.768-.462.4-.105.274.044.272Z" transform="translate(-212.7 -441.369)" fill="#221535"/>
        <path id="Path_403" data-name="Path 403" d="M259.92,461.85l1.339-.989,1.63,2.209-.271.2-1.44-1.953-1.068.788Z" transform="translate(-213.135 -441.024)" fill="#221535"/>
        <path id="Path_404" data-name="Path 404" d="M259.641,464.471l-.789-1.256-.032-.467.2-.414.906-.57,1.487,2.364-.906.57-.461,0Zm.24-.252.256.146.274,0,.541-.339-1.128-1.794-.541.34-.12.247.019.292Z" transform="translate(-213.503 -440.721)" fill="#221535"/>
        <path id="Path_405" data-name="Path 405" d="M256.858,466.525l-1.1-2.511.308-.135,1.749,1.479-.824-1.883.308-.135,1.1,2.511-.31.135-1.747-1.479.822,1.883Z" transform="translate(-214.527 -440.194)" fill="#221535"/>
        <path id="Path_406" data-name="Path 406" d="M255.957,465.249l-.306-.878-1.273.443-.1-.3,1.591-.554.9,2.592-1.591.554-.105-.3,1.273-.443-.282-.813-1.047.364-.1-.3Z" transform="translate(-215.025 -439.986)" fill="#221535"/>
        <path id="Path_407" data-name="Path 407" d="M254.382,465.761l-.239-.9-1.3.347-.083-.308,1.63-.434.706,2.654-1.629.434-.083-.308,1.3-.347-.222-.832-1.071.286-.083-.307Z" transform="translate(-215.533 -439.816)" fill="#221535"/>
        <path id="Path_408" data-name="Path 408" d="M251.57,467.255,251.3,465.8l.143-.446.34-.31,1.051-.2.514,2.74-1.051.2-.43-.166Zm.315-.146.184.228.256.1.626-.117-.39-2.08-.626.117-.2.186-.089.279Z" transform="translate(-216.022 -439.689)" fill="#221535"/>
        <path id="Path_409" data-name="Path 409" d="M250.164,467.147l.024.224.152.191.248.1.276-.031.222-.15.107-.218-.025-.23-.152-.191-.248-.1-.359.04-.41-.16-.27-.336-.047-.424.188-.387.364-.247.442-.048.41.16.27.336.036.323-.335.036-.025-.224-.152-.191-.248-.1-.276.031-.22.149-.107.219.025.23.152.191.248.1.359-.04.41.16.27.336.047.424-.19.387-.364.246-.44.049-.41-.16-.27-.336-.036-.322Z" transform="translate(-216.563 -439.578)" fill="#221535"/>
        <path id="Path_410" data-name="Path 410" d="M246.974,466.023l.659.024.191-.69.348.012-.764,2.716-.362-.013-.561-2.764.348.012Zm.068.339.211,1.067.288-1.048Z" transform="translate(-217.633 -439.535)" fill="#221535"/>
        <path id="Path_411" data-name="Path 411" d="M244.7,467.873l.3-2.727.335.037.778,2.156.227-2.045.335.037-.3,2.727-.335-.037-.778-2.157-.227,2.046Z" transform="translate(-218.232 -439.589)" fill="#221535"/>
        <path id="Path_412" data-name="Path 412" d="M243.052,467.216l.661.124.446-2.381.331.063-.446,2.38.661.125-.059.312-1.653-.311Z" transform="translate(-218.803 -439.651)" fill="#221535"/>
        <path id="Path_413" data-name="Path 413" d="M241.309,467.124l.706-2.654.327.087-.316,1.187L243,466l.316-1.187.326.087-.707,2.654-.326-.087.3-1.141-.977-.26-.3,1.141Z" transform="translate(-219.367 -439.815)" fill="#221535"/>
        <path id="Path_414" data-name="Path 414" d="M240.328,465.271l.278-.045-.019-1.247.339.117.016,1.153.5.175.356-1.024.318.111-.91,2.615-.973-.339-.316-.344-.1-.45.151-.432Zm-.159.742.06.268.2.216.575.2.332-.956-.575-.2-.29.047-.214.174Z" transform="translate(-219.866 -439.98)" fill="#221535"/>
        <path id="Path_415" data-name="Path 415" d="M239.685,463.509l.419.183.262.378.037.467-.593,1.358-.368.288-.455.065-.418-.183-.262-.379-.039-.466.593-1.358.368-.288Zm.2.452-.243-.105-.271.039-.231.18-.526,1.2.024.292.156.226.243.107.272-.039.231-.182.525-1.2-.024-.292Z" transform="translate(-220.385 -440.137)" fill="#221535"/>
        <path id="Path_416" data-name="Path 416" d="M236.74,464.355l.214-.4.4-.232.469,0,.613.324.507-.957.3.159-1.3,2.445-.91-.483-.26-.39Zm.342.073.019.274.163.244.537.284.474-.893-.537-.284h-.294l-.238.139Z" transform="translate(-220.897 -440.28)" fill="#221535"/>
        <path id="Path_417" data-name="Path 417" d="M236.978,462.013l.387.243.2.414-.032.467-.789,1.255-.408.231-.461,0-.387-.244-.2-.414.031-.467.79-1.255.407-.231Zm.127.477-.224-.14-.275,0-.255.144-.7,1.112-.02.292.121.247.224.142h.275l.255-.144.7-1.111.019-.294Z" transform="translate(-221.382 -440.639)" fill="#221535"/>
        <path id="Path_418" data-name="Path 418" d="M235.03,460.861l1.339.988-1.63,2.209-.271-.2,1.442-1.953-1.069-.788Z" transform="translate(-221.657 -441.024)" fill="#221535"/>
        <path id="Path_419" data-name="Path 419" d="M234.529,460.138l.347.3.139.439-.1.458-.968,1.124-.438.168-.455-.072-.346-.3-.139-.439.1-.458.968-1.124.438-.168Zm.053.491-.2-.174-.272-.043-.274.105-.857,1-.063.286.083.262.2.173.271.043.274-.1.857-1,.063-.287Z" transform="translate(-222.294 -441.29)" fill="#221535"/>
        <path id="Path_420" data-name="Path 420" d="M231.873,460.21l-.109.108-.084.28.064.267.187.188.267.063.282-.084.928-.928.084-.28-.064-.267-.187-.188-.267-.063-.282.084-.259.26.356.356-.238.239-.6-.6.558-.558.449-.135.449.105.323.323.105.448-.135.449-1.048,1.048-.449.134-.449-.105-.323-.323-.105-.449.135-.447.168-.169Z" transform="translate(-222.708 -441.661)" fill="#221535"/>
        <path id="Path_421" data-name="Path 421" d="M232.239,458.265l-.441-.51.24-.207,1.1,1.273-.24.207-.439-.509-1.594,1.375.44.51-.24.207-1.1-1.273.24-.207.439.509Z" transform="translate(-223.165 -442.133)" fill="#221535"/>
        <path id="Path_422" data-name="Path 422" d="M229.746,457.593l-.182.133-.088.227.041.263.164.224.24.115.242-.017.186-.137.088-.226-.04-.264-.215-.29-.067-.434.155-.4.343-.254.428-.031.4.191.264.356.067.435-.155.4-.26.194-.2-.271.182-.135.088-.226-.04-.264-.165-.223-.24-.115-.242.017-.186.136-.088.227.041.263.214.291.067.434-.155.4-.342.254-.43.032-.4-.191-.264-.358-.067-.434.155-.4.26-.194Z" transform="translate(-223.445 -442.484)" fill="#221535"/>
        <path id="Path_423" data-name="Path 423" d="M228.251,456.1l.359.57,2.053-1.291.18.284-2.054,1.292.359.571-.27.17-.9-1.427Z" transform="translate(-223.83 -442.858)" fill="#221535"/>
        <path id="Path_424" data-name="Path 424" d="M228.009,454.676l-.2.107-.121.211v.267l.131.246.22.151.243.019.2-.108.121-.212v-.267l-.17-.319v-.439l.214-.375.376-.2.43.033.364.248.208.392v.44l-.214.374-.287.152-.158-.3.2-.107.12-.211v-.267l-.129-.246-.22-.15-.243-.02-.2.109-.12.211v.267l.168.319v.439l-.212.375-.378.2-.43-.033-.363-.248-.208-.392v-.439l.212-.375.287-.152Z" transform="translate(-224.04 -443.403)" fill="#221535"/>
        <path id="Path_425" data-name="Path 425" d="M228.509,451.911l-.41-1.167.3-.1.558,1.587-.3.1-1.914-.754-.218.076-.151.191-.039.264.092.262.2.182.236.055.218-.077.112.318-.31.109-.421-.1-.322-.3-.147-.418.064-.435.266-.338.428-.151Z" transform="translate(-224.496 -444.445)" fill="#221535"/>
        <path id="Path_426" data-name="Path 426" d="M225.973,449.629l1.43-.382.455.108.334.315.119.442-.133.439-.34.32-1.43.383-.455-.108-.335-.316-.117-.44.133-.439Zm.144,1.211.061.015,1.009-1.2-1.047.279-.214.2-.079.263.068.255Zm1.575-1.177-.06-.015-1.009,1.2,1.045-.28.212-.2.08-.263-.069-.255Z" transform="translate(-224.661 -444.913)" fill="#221535"/>
        <path id="Path_427" data-name="Path 427" d="M227.525,448.289l-.124-.662.312-.059.31,1.654-.312.059-.124-.662-2.069.388.124.662-.312.059-.186-.993Z" transform="translate(-224.78 -445.475)" fill="#221535"/>
        <path id="Path_428" data-name="Path 428" d="M225.392,446.273l1.612-.179.387.154.254.322.053.475-.178.368-.343.236-.3.033-.037-.335.22-.024.2-.138.1-.2-.032-.283-.137-.175-.226-.089-.563.063.151.19.053.477-.179.368-.343.235-.513.057-.386-.153-.255-.322-.052-.475.178-.37Zm.12.326-.2.136-.1.2.032.283.139.175.224.089.346-.039.2-.136.1-.2-.032-.283-.139-.175-.224-.089Z" transform="translate(-224.871 -445.969)" fill="#221535"/>
      </g>
    </g>
  </g>
</svg>
