<svg xmlns="http://www.w3.org/2000/svg" xmlns:xlink="http://www.w3.org/1999/xlink" width="34.234" height="33.441" viewBox="0 0 34.234 33.441">
  <defs>
    <clipPath id="clip-path">
      <path id="Path_453" data-name="Path 453" d="M17.117,11.441A16.922,16.922,0,0,0,34.234-5.28,16.922,16.922,0,0,0,17.117-22,16.922,16.922,0,0,0,0-5.28,16.922,16.922,0,0,0,17.117,11.441Z" transform="translate(0 22)" fill="none"/>
    </clipPath>
    <clipPath id="clip-path-2">
      <path id="Path_452" data-name="Path 452" d="M-14,684.957H630.224V-677H-14Z" transform="translate(14 677)" fill="none"/>
    </clipPath>
    <clipPath id="clip-path-3">
      <path id="Path_456" data-name="Path 456" d="M25.229-13.2a8.814,8.814,0,0,1-2.384.6,3.918,3.918,0,0,0,1.825-2.123,8.73,8.73,0,0,1-2.636.931A4.311,4.311,0,0,0,19-15a4,4,0,0,0-4.15,3.837,3.556,3.556,0,0,0,.108.875A12.125,12.125,0,0,1,6.408-14.3a3.6,3.6,0,0,0-.562,1.929A3.77,3.77,0,0,0,7.692-9.175a4.38,4.38,0,0,1-1.88-.481c0,.016,0,.033,0,.049A3.929,3.929,0,0,0,9.142-5.844a4.453,4.453,0,0,1-1.093.135,4.483,4.483,0,0,1-.781-.068,4.127,4.127,0,0,0,3.877,2.665A8.767,8.767,0,0,1,5.99-1.47,9.03,9.03,0,0,1,5-1.524,12.444,12.444,0,0,0,11.361.2C19,.2,23.17-5.647,23.17-10.718c0-.166,0-.332-.012-.5A8.1,8.1,0,0,0,25.229-13.2Z" transform="translate(-5 15)" fill="none"/>
    </clipPath>
  </defs>
  <g id="Twitter_icon" data-name="Twitter icon" transform="translate(0 22)">
    <g id="Group_64" data-name="Group 64" transform="translate(0 -22)" clip-path="url(#clip-path)">
      <g id="Group_63" data-name="Group 63" transform="translate(-21.785 -995.627)" clip-path="url(#clip-path-2)">
        <path id="Path_451" data-name="Path 451" d="M-5-27H44.8V21.641H-5Z" transform="translate(19.005 1015.027)" fill="#54abed"/>
      </g>
    </g>
    <g id="Group_66" data-name="Group 66" transform="translate(7.78 -11.36)" clip-path="url(#clip-path-3)">
      <g id="Group_65" data-name="Group 65" transform="translate(-29.566 -1006.268)" clip-path="url(#clip-path-2)">
        <path id="Path_454" data-name="Path 454" d="M0-20H35.79V10.4H0Z" transform="translate(21.785 1018.667)" fill="#f0f1f1"/>
      </g>
    </g>
  </g>
</svg>
